<?xml version="1.0" encoding="UTF-8"?>
<!DOCTYPE svg PUBLIC "-//W3C//DTD SVG 1.0//EN" "http://www.w3.org/TR/2001/REC-SVG-20010904/DTD/svg10.dtd">
<!-- Creator: CorelDRAW 2020 (64-Bit) -->
<?xml-stylesheet href="inst.css" type="text/css"?>
<svg xmlns="http://www.w3.org/2000/svg" xml:space="preserve" width="210mm" height="297mm" version="1.0" style="shape-rendering:geometricPrecision; text-rendering:geometricPrecision; image-rendering:optimizeQuality; fill-rule:evenodd; clip-rule:evenodd"
viewBox="0 0 21000 29700"
 xmlns:xlink="http://www.w3.org/1999/xlink"
 xmlns:xodm="http://www.corel.com/coreldraw/odm/2003">
 <g id="Слой_x0020_1">
  <metadata id="CorelCorpID_0Corel-Layer"/>
  <circle class="fil0" cx="11290.92" cy="14850" r="515.94"/>
  <path class="fil1 str0" d="M11401.47 14643.6l-221.12 0c-61.05,0 -110.55,49.5 -110.55,110.56l0 221.11c0,61.06 49.5,110.56 110.55,110.56l221.12 0c61.06,0 110.56,-49.5 110.56,-110.56l0 -221.11c0,-61.06 -49.5,-110.56 -110.56,-110.56z"/>
  <path class="fil1 str1" d="M11379.36 14850.79c2.73,18.41 -0.41,37.2 -8.98,53.71 -8.57,16.51 -22.13,29.9 -38.75,38.27 -16.61,8.36 -35.45,11.27 -53.81,8.32 -18.37,-2.96 -35.34,-11.63 -48.49,-24.78 -13.16,-13.16 -21.83,-30.13 -24.78,-48.49 -2.96,-18.37 -0.05,-37.2 8.32,-53.82 8.36,-16.62 21.75,-30.17 38.26,-38.74 16.52,-8.57 35.31,-11.71 53.71,-8.98 18.77,2.78 36.15,11.53 49.57,24.94 13.42,13.42 22.17,30.8 24.95,49.57z"/>
 </g>
</svg>
